_________________________  Visit us at _________________________
  
http://p2pdl.com  ____________________________  http://p2pdl.com


Paradise Murdered 2007 BRRip 720p x264 Korean Esubs - PRiSTiNE [P2PDL]

Genre: Mystery | Thriller
Plot: (Not Available)
Director: Han-min Kim
Stars:  Chi-Wook Ahn, Nae-sang Ahn, Ju-bong Choi
Rated: PG-13

Info: 
http://www.imdb.com/title/tt0068327/

General
Complete name                  : Paradise Murdered 2007 BRRip 720p x264 Korean Esubs - PRiSTiNE.mp4
Format                         : MPEG-4
Format profile                 : Base Media
File size                      : 633 MiB
Duration                       : 1h 50mn
Overall bit rate mode          : Variable
Overall bit rate               : 802 Kbps

Video
Format                         : AVC
Format/Info                    : Advanced Video Codec
Format profile                 : High 10@L4.1
Bit rate                       : 719 Kbps
Width                          : 1 280 pixels
Height                         : 576 pixels
Display aspect ratio           : 2.222
Frame rate mode                : Constant
Frame rate                     : 23.976 fps
Bit depth                      : 10 bits
Stream size                    : 568 MiB (90%)
Writing library                : x264 core 130 r2273 b3065e6

Audio
Format                         : AAC
Format profile                 : HE-AAC / LC
Bit rate                       : 80.0 Kbps
Channel(s)                     : 2 channels
Channel positions              : Front: L R
Sampling rate                  : 48.0 KHz / 24.0 KHz
Stream size                    : 63.2 MiB (10%)
Language                       : Korean

Subtitle                       : Yes (English)
Source                         : 720p Bluray AC3 x264-EbP (Thanks)

Screens:
 
http://www.ultraimg.com/images/0NIn.jpg 
http://www.ultraimg.com/images/QDot5.jpg 
http://www.ultraimg.com/images/TbSv.jpg 
http://www.ultraimg.com/images/Lgxo.jpg

----------------------------------------------------------------------------------------------------


Encoded using revolutionary 10bit encoding, which enables us to provide you more crispier 
and sharper images at small sizes, just make sure you follow our instructions without a fault.
Recommend to you to use latest version of VLC player. Install K-Lite Codec Pack or shark007 codecs
in case of any kind of problem in playback (For non-VLC Media Player users). Alternatively, install
Core AVC codecs, the fastest decoder that there is coupled with Community Center Codec Pack and play
on Windows Media Player Classic. Check sample to be sure.
Enjoy!

Encoder Notes:Looking For Early Access To Anything You Can Provide DVDScr, R5, DVDR, BluRay, Direct
Audio, Music Releases and Seedboxes. We require dedicated servers, so as to do more 
and fast releases of movies.
If You Got anything to offer please contact us at "prg@hush.com".

Face book Fan Page:   
http://www.fb.me/p2pdl